<svg id="visual" viewBox="0 0 540 960" width="540" height="960" xmlns="http://www.w3.org/2000/svg" xmlns:xlink="http://www.w3.org/1999/xlink" version="1.1"><path d="M0 568L22.5 564C45 560 90 552 135 535.3C180 518.7 225 493.3 270 485.5C315 477.7 360 487.3 405 491.5C450 495.7 495 494.3 517.5 493.7L540 493L540 961L517.5 961C495 961 450 961 405 961C360 961 315 961 270 961C225 961 180 961 135 961C90 961 45 961 22.5 961L0 961Z" fill="#0a0047"></path><path d="M0 634L22.5 624.3C45 614.7 90 595.3 135 587.5C180 579.7 225 583.3 270 583.3C315 583.3 360 579.7 405 573.5C450 567.3 495 558.7 517.5 554.3L540 550L540 961L517.5 961C495 961 450 961 405 961C360 961 315 961 270 961C225 961 180 961 135 961C90 961 45 961 22.5 961L0 961Z" fill="#14146c"></path><path d="M0 718L22.5 717.8C45 717.7 90 717.3 135 699.5C180 681.7 225 646.3 270 627.7C315 609 360 607 405 630.3C450 653.7 495 702.3 517.5 726.7L540 751L540 961L517.5 961C495 961 450 961 405 961C360 961 315 961 270 961C225 961 180 961 135 961C90 961 45 961 22.5 961L0 961Z" fill="#1c2893"></path><path d="M0 722L22.5 739.8C45 757.7 90 793.3 135 789.2C180 785 225 741 270 733.5C315 726 360 755 405 762.8C450 770.7 495 757.3 517.5 750.7L540 744L540 961L517.5 961C495 961 450 961 405 961C360 961 315 961 270 961C225 961 180 961 135 961C90 961 45 961 22.5 961L0 961Z" fill="#1b3ebd"></path><path d="M0 812L22.5 809.2C45 806.3 90 800.7 135 806.7C180 812.7 225 830.3 270 834.5C315 838.7 360 829.3 405 827.7C450 826 495 832 517.5 835L540 838L540 961L517.5 961C495 961 450 961 405 961C360 961 315 961 270 961C225 961 180 961 135 961C90 961 45 961 22.5 961L0 961Z" fill="#0055e9"></path></svg>