<svg id="visual" viewBox="0 0 1440 1024" width="1440" height="1024" xmlns="http://www.w3.org/2000/svg" xmlns:xlink="http://www.w3.org/1999/xlink" version="1.1"><path d="M0 613L34.3 634C68.7 655 137.3 697 205.8 721.2C274.3 745.3 342.7 751.7 411.2 747.7C479.7 743.7 548.3 729.3 617 709.3C685.7 689.3 754.3 663.7 823 660.5C891.7 657.3 960.3 676.7 1028.8 672.5C1097.3 668.3 1165.7 640.7 1234.2 628.5C1302.7 616.3 1371.3 619.7 1405.7 621.3L1440 623L1440 1025L1405.7 1025C1371.3 1025 1302.7 1025 1234.2 1025C1165.7 1025 1097.3 1025 1028.8 1025C960.3 1025 891.7 1025 823 1025C754.3 1025 685.7 1025 617 1025C548.3 1025 479.7 1025 411.2 1025C342.7 1025 274.3 1025 205.8 1025C137.3 1025 68.7 1025 34.3 1025L0 1025Z" fill="#0a0047"></path><path d="M0 788L34.3 769.3C68.7 750.7 137.3 713.3 205.8 701.8C274.3 690.3 342.7 704.7 411.2 719C479.7 733.3 548.3 747.7 617 752.2C685.7 756.7 754.3 751.3 823 738C891.7 724.7 960.3 703.3 1028.8 708.7C1097.3 714 1165.7 746 1234.2 762.2C1302.7 778.3 1371.3 778.7 1405.7 778.8L1440 779L1440 1025L1405.7 1025C1371.3 1025 1302.7 1025 1234.2 1025C1165.7 1025 1097.3 1025 1028.8 1025C960.3 1025 891.7 1025 823 1025C754.3 1025 685.7 1025 617 1025C548.3 1025 479.7 1025 411.2 1025C342.7 1025 274.3 1025 205.8 1025C137.3 1025 68.7 1025 34.3 1025L0 1025Z" fill="#14146c"></path><path d="M0 784L34.3 783.5C68.7 783 137.3 782 205.8 775.7C274.3 769.3 342.7 757.7 411.2 769.8C479.7 782 548.3 818 617 831.3C685.7 844.7 754.3 835.3 823 825.5C891.7 815.7 960.3 805.3 1028.8 810.3C1097.3 815.3 1165.7 835.7 1234.2 831C1302.7 826.3 1371.3 796.7 1405.7 781.8L1440 767L1440 1025L1405.7 1025C1371.3 1025 1302.7 1025 1234.2 1025C1165.7 1025 1097.3 1025 1028.8 1025C960.3 1025 891.7 1025 823 1025C754.3 1025 685.7 1025 617 1025C548.3 1025 479.7 1025 411.2 1025C342.7 1025 274.3 1025 205.8 1025C137.3 1025 68.7 1025 34.3 1025L0 1025Z" fill="#1c2893"></path><path d="M0 842L34.3 847.2C68.7 852.3 137.3 862.7 205.8 868.5C274.3 874.3 342.7 875.7 411.2 873.7C479.7 871.7 548.3 866.3 617 871.8C685.7 877.3 754.3 893.7 823 903.5C891.7 913.3 960.3 916.7 1028.8 919.3C1097.3 922 1165.7 924 1234.2 908.2C1302.7 892.3 1371.3 858.7 1405.7 841.8L1440 825L1440 1025L1405.7 1025C1371.3 1025 1302.7 1025 1234.2 1025C1165.7 1025 1097.3 1025 1028.8 1025C960.3 1025 891.7 1025 823 1025C754.3 1025 685.7 1025 617 1025C548.3 1025 479.7 1025 411.2 1025C342.7 1025 274.3 1025 205.8 1025C137.3 1025 68.7 1025 34.3 1025L0 1025Z" fill="#1b3ebd"></path><path d="M0 918L34.3 922.5C68.7 927 137.3 936 205.8 934.5C274.3 933 342.7 921 411.2 919.5C479.7 918 548.3 927 617 932.3C685.7 937.7 754.3 939.3 823 940.7C891.7 942 960.3 943 1028.8 947.7C1097.3 952.3 1165.7 960.7 1234.2 962C1302.7 963.3 1371.3 957.7 1405.7 954.8L1440 952L1440 1025L1405.7 1025C1371.3 1025 1302.7 1025 1234.2 1025C1165.7 1025 1097.3 1025 1028.8 1025C960.3 1025 891.7 1025 823 1025C754.3 1025 685.7 1025 617 1025C548.3 1025 479.7 1025 411.2 1025C342.7 1025 274.3 1025 205.8 1025C137.3 1025 68.7 1025 34.3 1025L0 1025Z" fill="#0055e9"></path></svg>