<svg width="408" height="97" viewBox="0 0 408 97" fill="none" xmlns="http://www.w3.org/2000/svg">
<path fill-rule="evenodd" clip-rule="evenodd" d="M92.1552 71.1249C93.027 67.9216 92.3215 66.1134 91.653 65.2682C90.9844 64.4231 89.3872 63.3202 86.0692 63.431C82.7553 63.5417 78.5066 64.9361 74.5017 68.104C70.4969 71.2719 68.1616 75.0854 67.291 78.2848C66.4192 81.4882 67.1247 83.2964 67.7932 84.1415C68.4618 84.9867 70.059 86.0895 73.377 85.9787C76.6909 85.8681 80.9396 84.4736 84.9445 81.3057C88.9493 78.1379 91.2846 74.3243 92.1552 71.1249ZM91.6047 89.7256C102.844 80.8356 106.635 66.9037 100.073 58.608C93.5108 50.3122 79.0804 50.794 67.8415 59.6841C56.6026 68.5742 52.8113 82.506 59.3733 90.8018C65.9354 99.0975 80.3658 98.6157 91.6047 89.7256Z" fill="#00CC66"/>
<path fill-rule="evenodd" clip-rule="evenodd" d="M11.5078 71.1249C10.636 67.9216 11.3415 66.1134 12.01 65.2682C12.6785 64.4231 14.2757 63.3202 17.5938 63.431C20.9076 63.5417 25.1564 64.9361 29.1612 68.104C33.1661 71.2719 35.5013 75.0854 36.372 78.2848C37.2437 81.4882 36.5383 83.2964 35.8697 84.1415C35.2012 84.9867 33.604 86.0895 30.286 85.9787C26.9721 85.8681 22.7234 84.4736 18.7185 81.3057C14.7137 78.1379 12.3784 74.3243 11.5078 71.1249ZM12.0583 89.7256C0.81943 80.8356 -2.97189 66.9037 3.59013 58.608C10.1522 50.3122 24.5826 50.794 35.8215 59.6841C47.0603 68.5742 50.8517 82.506 44.2896 90.8018C37.7276 99.0975 23.2971 98.6157 12.0583 89.7256Z" fill="#00CC66"/>
<path fill-rule="evenodd" clip-rule="evenodd" d="M11.5056 25.5959C10.6338 28.7993 11.3393 30.6075 12.0078 31.4527C12.6764 32.2978 14.2736 33.4006 17.5916 33.2899C20.9055 33.1792 25.1542 31.7847 29.1591 28.6169C33.1639 25.449 35.4992 21.6354 36.3698 18.4361C37.2416 15.2327 36.5361 13.4245 35.8676 12.5793C35.199 11.7342 33.6018 10.6314 30.2838 10.7421C26.9699 10.8528 22.7212 12.2473 18.7163 15.4151C14.7115 18.583 12.3762 22.3966 11.5056 25.5959ZM12.0561 6.99523C0.817246 15.8853 -2.97408 29.8171 3.58795 38.1129C10.15 46.4086 24.5804 45.9268 35.8193 37.0368C47.0582 28.1467 50.8495 14.2149 44.2875 5.91911C37.7254 -2.37663 23.295 -1.89483 12.0561 6.99523Z" fill="#00CC66"/>
<path fill-rule="evenodd" clip-rule="evenodd" d="M92.1551 25.5959C93.0269 28.7993 92.3214 30.6075 91.6528 31.4526C90.9843 32.2978 89.3871 33.4006 86.0691 33.2899C82.7552 33.1792 78.5065 31.7847 74.5016 28.6169C70.4968 25.449 68.1615 21.6354 67.2909 18.4361C66.4191 15.2327 67.1246 13.4245 67.7931 12.5793C68.4617 11.7342 70.0589 10.6313 73.3769 10.7421C76.6908 10.8528 80.9395 12.2473 84.9444 15.4151C88.9492 18.583 91.2845 22.3966 92.1551 25.5959ZM91.6046 6.99523C102.843 15.8853 106.635 29.8171 100.073 38.1129C93.5107 46.4086 79.0803 45.9268 67.8414 37.0368C56.6025 28.1467 52.8112 14.2148 59.3732 5.9191C65.9353 -2.37664 80.3657 -1.89484 91.6046 6.99523Z" fill="#00CC66"/>
<path d="M136.557 21.4052V23.2712C136.557 25.2306 136.091 26.7234 135.251 28.4029C134.878 29.3359 134.225 30.4555 135.158 30.922C136.091 31.3886 136.651 30.1756 136.837 29.8024C139.823 24.5775 144.768 20.6587 152.419 20.6587C165.201 20.6587 173.878 31.8551 173.878 46.0371C173.878 60.2191 165.201 71.4154 152.419 71.4154C144.955 71.4154 139.823 67.59 136.837 62.1785C136.651 61.8985 136.278 60.9655 135.438 61.2454C134.411 61.6186 134.785 62.5517 135.251 63.4847C136.091 65.1641 136.557 66.657 136.557 68.523V86.393H124.615V21.4052H136.557ZM149.62 60.5923C158.017 60.5923 161.936 53.8745 161.936 46.0371C161.936 38.1997 158.017 31.4819 149.62 31.4819C141.782 31.4819 136.557 38.1997 136.557 46.0371C136.557 53.8745 141.782 60.5923 149.62 60.5923Z" fill="#00CC66"/>
<path d="M178.394 57.1401C178.394 46.2237 186.418 42.2117 196.308 41.6519C205.079 41.1853 212.823 42.0251 212.73 37.4532C212.636 34.0943 211.33 30.3622 202.84 30.3622C194.442 30.3622 192.296 33.8144 191.643 37.8264H179.887C181.566 25.4172 192.203 20.6587 203.213 20.6587C214.502 20.6587 224.672 24.3909 224.672 43.4246V70.669H212.73V67.2168C212.73 64.9775 213.289 63.3914 214.129 61.8052C214.502 60.9655 214.876 60.0325 214.036 59.6593C213.103 59.2861 212.73 60.2191 212.543 60.6856C209.744 67.4967 204.332 71.4154 195.562 71.4154C186.325 71.4154 178.394 65.444 178.394 57.1401ZM212.73 45.2907C209.931 48.3696 205.452 48.8362 198.361 49.5826C193.229 50.1424 190.337 52.1018 190.337 56.487C190.337 60.5923 194.256 63.2048 199.761 62.4584C206.105 61.6186 212.636 57.5133 212.73 45.2907Z" fill="#00CC66"/>
<path d="M243.966 31.9484C244.525 32.0417 244.992 31.2953 245.085 31.0153C248.071 24.2042 250.777 20.6587 262.813 20.6587V32.7881C248.911 31.8551 244.899 36.8001 244.899 49.3027V70.669H232.956V21.4052H244.899V24.1109C244.899 26.2569 244.339 28.123 243.499 29.8024C243.126 30.6421 242.846 31.7618 243.966 31.9484Z" fill="#00CC66"/>
<path d="M302.706 31.8551H289.27V54.341C289.27 59.7526 289.364 60.2191 294.402 60.2191H302.706V70.669H291.883C281.993 70.669 277.328 67.4034 277.328 55.554V31.8551H268.371V21.4052H277.328V10.5052H289.27V21.4052H302.706V31.8551Z" fill="#00CC66"/>
<path d="M337.675 20.6587C348.312 20.6587 355.403 27.5631 355.403 41.5585V70.669H343.46V45.6639C343.46 34.5608 340.567 31.4819 334.316 31.4819C327.412 31.4819 321.067 39.226 321.067 50.6089V70.669H309.124V21.4052H321.067V24.4842C321.067 27.4698 320.507 29.2426 319.574 31.202C319.201 32.0417 318.641 33.3479 319.854 33.6278C320.601 33.8144 320.881 33.2546 321.254 32.5082C323.493 27.5631 329.091 20.6587 337.675 20.6587Z" fill="#00CC66"/>
<path d="M361.355 57.1401C361.355 46.2237 369.379 42.2117 379.269 41.6519C388.04 41.1853 395.784 42.0251 395.69 37.4532C395.597 34.0943 394.291 30.3622 385.8 30.3622C377.403 30.3622 375.257 33.8144 374.604 37.8264H362.848C364.527 25.4172 375.164 20.6587 386.173 20.6587C397.463 20.6587 407.633 24.3909 407.633 43.4246V70.669H395.69V67.2168C395.69 64.9775 396.25 63.3914 397.09 61.8052C397.463 60.9655 397.836 60.0325 396.997 59.6593C396.064 59.2861 395.69 60.2191 395.504 60.6856C392.705 67.4967 387.293 71.4154 378.523 71.4154C369.286 71.4154 361.355 65.444 361.355 57.1401ZM395.69 45.2907C392.891 48.3696 388.413 48.8362 381.322 49.5826C376.19 50.1424 373.298 52.1018 373.298 56.487C373.298 60.5923 377.216 63.2048 382.721 62.4584C389.066 61.6186 395.597 57.5133 395.69 45.2907Z" fill="#00CC66"/>
</svg>
